<?xml version="1.0" encoding="UTF-8"?>
<!DOCTYPE svg PUBLIC "-//W3C//DTD SVG 1.0//EN" "http://www.w3.org/TR/2001/REC-SVG-20010904/DTD/svg10.dtd">
<!-- Creator: CorelDRAW X8 -->
<svg xmlns="http://www.w3.org/2000/svg" xml:space="preserve" width="118.533mm" height="82.9732mm" version="1.0" style="shape-rendering:geometricPrecision; text-rendering:geometricPrecision; image-rendering:optimizeQuality; fill-rule:evenodd; clip-rule:evenodd"
viewBox="0 0 11853 8297"
 xmlns:xlink="http://www.w3.org/1999/xlink">
 <defs>
  <style type="text/css">
   <![CDATA[
    .fil0 {fill:none}
    .fil16 {fill:#FEFEFE}
    .fil8 {fill:#FDE5A9}
    .fil25 {fill:#F7C199}
    .fil21 {fill:#F6B585}
    .fil22 {fill:#F29956}
    .fil20 {fill:#EE8536}
    .fil15 {fill:#E86587}
    .fil4 {fill:#FCEF0F}
    .fil9 {fill:#F1A54C}
    .fil10 {fill:#DC3F6A}
    .fil2 {fill:#EED14B}
    .fil5 {fill:#AB2933}
    .fil26 {fill:#BAE1ED}
    .fil14 {fill:#AD73AE}
    .fil11 {fill:#AC5133}
    .fil3 {fill:#A3CA28}
    .fil1 {fill:#97D1E3}
    .fil7 {fill:#92569D}
    .fil18 {fill:#862F59}
    .fil24 {fill:#5B2734}
    .fil23 {fill:#684388}
    .fil17 {fill:#464798}
    .fil19 {fill:#1C707B}
    .fil12 {fill:#222428}
    .fil6 {fill:#28436F}
    .fil13 {fill:#252D3F}
    .fil27 {fill:#E86587;fill-rule:nonzero}
    .fil28 {fill:#1C707B;fill-rule:nonzero}
   ]]>
  </style>
 </defs>
 <g id="Layer_x0020_1">
  <metadata id="CorelCorpID_0Corel-Layer"/>
  <rect class="fil0" width="11853" height="8297"/>
  <polygon class="fil1" points="6634,2080 7162,2742 7362,2080 "/>
  <polygon class="fil2" points="9719,6475 9183,6784 8686,6784 8867,7458 7575,7804 8155,5643 9043,5750 "/>
  <polygon class="fil3" points="2861,6611 2112,7306 2136,7320 1576,7936 2232,7936 2362,7451 3301,7993 4269,7993 4744,7171 "/>
  <path class="fil4" d="M3752 2702l-22 0 22 -22 0 22zm-269 0l-3304 0 0 -508 3046 0 -41 155 299 353zm156 -508l113 0 0 113 -113 -113z"/>
  <rect class="fil3" x="6173" y="2820" width="5442" height="2592"/>
  <polygon class="fil5" points="6900,5225 9122,5728 9240,5847 9428,5882 10372,6544 10093,7134 9005,5801 8097,5801 7699,7286 6813,7048 5909,7952 4500,7952 4500,6957 6348,6924 6217,6889 "/>
  <polygon class="fil6" points="3970,5715 3495,6121 3485,6239 3393,6204 1915,7334 1482,8105 2758,6766 4094,7471 4412,7471 "/>
  <polygon class="fil7" points="4488,6288 4407,7055 4473,7624 5925,7624 6290,6992 "/>
  <polygon class="fil8" points="6958,5376 6030,6915 6030,7674 6836,6838 7025,5909 "/>
  <polygon class="fil9" points="6745,5729 6030,6915 6030,7060 6549,6921 6869,5729 "/>
  <polygon class="fil8" points="3829,4443 3804,4779 3970,5715 3970,6707 4412,7473 4742,6242 "/>
  <polygon class="fil9" points="4432,7399 4742,6242 4339,5447 4117,5669 "/>
  <polygon class="fil7" points="6460,1316 6699,926 6788,652 6652,417 6744,417 6960,792 6960,1159 7007,765 7007,502 7044,512 7044,1415 6737,1593 "/>
  <polygon class="fil10" points="5503,713 4785,298 4350,380 5031,562 4997,596 4350,422 4339,461 4594,530 5010,946 4636,730 4404,792 5191,1580 5689,1289 "/>
  <polygon class="fil4" points="6175,1353 6041,845 6041,340 5786,193 6080,193 6451,564 6451,896 6496,580 6496,279 6589,372 6589,1115 "/>
  <polygon class="fil3" points="5730,1351 5483,976 5386,617 4979,381 5465,381 5654,708 5535,264 5587,250 5654,501 5654,369 5999,369 5999,1351 "/>
  <polygon class="fil11" points="3713,2090 3326,2410 3420,2625 3460,2665 3365,2720 3456,3316 3509,3342 3381,3547 3666,4116 4116,3995 4497,3004 4163,2169 "/>
  <polygon class="fil7" points="6809,2677 7018,2656 7227,2781 7147,3220 7102,3232 7163,3267 7119,3707 6876,3707 "/>
  <polygon class="fil12" points="6450,6370 6566,6500 6136,6976 6030,6915 6030,7061 5579,7180 5528,6989 5528,7216 5451,7216 5451,7075 5374,7208 4376,6409 4490,6212 4593,5822 5236,5621 "/>
  <polygon class="fil13" points="5179,6248 5060,6691 5289,6920 5386,6752 5386,6941 5435,6941 5435,6627 5507,6896 5947,6896 5880,6648 6097,6865 6139,6841 5970,6672 6083,6737 6261,6297 5714,6128 "/>
  <polygon class="fil13" points="5124,5713 4803,5788 4803,6294 5022,6167 4983,6357 5179,6418 5788,6047 "/>
  <polygon class="fil14" points="5241,1472 4434,1546 3642,1089 3735,743 4357,1365 3847,765 4389,620 "/>
  <polygon class="fil10" points="5641,5977 5490,6128 5428,6073 5326,6073 5301,6165 5253,6081 5221,6090 5136,6406 5431,6485 5512,6343 5512,6467 5552,6467 5552,6262 5662,6454 5892,6515 5892,6290 5994,6466 6015,6461 5977,6323 6052,6451 6272,6451 6695,5719 6464,5325 6038,5151 "/>
  <polygon class="fil13" points="6440,5315 6308,5261 6084,5261 5874,5624 6024,5838 6304,5838 6470,5701 6543,5701 "/>
  <polygon class="fil3" points="5578,5734 6062,5334 6225,5558 6171,5857 5578,5857 "/>
  <polygon class="fil2" points="5597,5838 5458,6017 5845,6121 6175,5838 "/>
  <polygon class="fil2" points="7433,3959 7164,3672 6842,3672 7033,4332 7325,4383 "/>
  <polygon class="fil15" points="7352,3872 7223,3735 7129,3760 7220,4101 "/>
  <polygon class="fil16" points="7073,4624 7216,4718 7427,4521 7491,3964 7447,3853 7485,3529 7430,3315 7468,3220 7336,3141 7065,3664 7433,3959 7302,4316 7162,4274 6990,4584 "/>
  <polygon class="fil16" points="3524,4563 3651,3975 3971,3889 3971,4684 "/>
  <polygon class="fil1" points="3584,4543 3605,4341 3829,4257 3928,4673 "/>
  <polygon class="fil1" points="3325,3248 3732,3680 3732,3953 3511,4012 3226,3397 "/>
  <polygon class="fil17" points="3283,3412 3350,3517 3370,3768 3238,3951 "/>
  <polygon class="fil15" points="3438,3649 3486,3662 3678,4010 3643,4313 3758,4428 3465,4597 3351,4544 3239,4129 "/>
  <polygon class="fil2" points="3373,4554 3351,4544 3296,4341 3344,4341 3445,4341 3507,4499 "/>
  <polygon class="fil18" points="3576,3826 3678,4010 3666,4116 3498,4116 "/>
  <polygon class="fil16" points="3953,4651 3723,4848 3388,4662 3225,4264 3226,3397 3172,3303 3325,3248 3283,3412 3247,3927 3350,3746 3350,3517 3463,3630 3268,4144 3364,4535 3507,4499 3443,4341 3605,4341 3594,4476 "/>
  <polygon class="fil14" points="3953,4651 3723,4848 3670,4819 3725,4724 3599,4651 3584,4771 3556,4755 3586,4527 3637,4497 "/>
  <polygon class="fil13" points="4095,1635 3378,1635 3481,2021 3877,1915 3579,2092 3595,2119 3882,1953 3543,2226 3543,2660 4269,2241 4269,1785 "/>
  <polygon class="fil19" points="6886,1540 7286,1433 7379,1781 7334,1860 7394,1920 7256,2158 7075,2158 7185,2268 7355,2268 7370,2324 7041,2324 6892,2175 7210,2725 6748,2725 6452,1948 "/>
  <polygon class="fil12" points="5143,1409 5051,1409 4431,789 4154,789 4459,966 4909,1416 4072,933 3869,933 4269,1333 4000,1177 3980,1213 4363,1435 3667,1200 3554,1621 3956,1621 4208,2057 5317,2032 5389,1706 "/>
  <polygon class="fil17" points="6927,4881 7048,5042 7002,5262 6900,5225 7020,5330 6999,5354 6907,5273 6958,5376 6745,5841 6630,6452 6194,6452 6514,5717 6387,5287 6714,4838 "/>
  <polygon class="fil7" points="6510,5702 6401,5334 6401,5268 6714,4838 6817,4859 6896,5154 6709,5262 6806,5359 6608,5702 "/>
  <polygon class="fil19" points="7083,4253 7205,4286 7131,4550 7082,4567 7118,4617 7008,4937 6651,4937 "/>
  <polygon class="fil7" points="6417,4728 6447,5449 6270,5552 6130,5307 5660,5192 5660,4728 "/>
  <polygon class="fil13" points="3829,4627 4044,5124 4330,6076 4410,6108 4353,6205 4382,6234 4524,5988 4453,6253 4603,6402 4628,6013 4859,6013 4999,5439 "/>
  <polygon class="fil12" points="5780,5643 5968,5643 5772,5779 5687,5779 5758,5850 5575,6049 5108,5924 5108,5820 4916,6013 4803,6013 4803,5167 5275,5167 "/>
  <polygon class="fil20" points="6014,5302 6109,5366 5978,5622 5583,5734 5325,5620 5123,5358 5254,5292 "/>
  <polygon class="fil10" points="5222,5486 5123,5358 5149,5345 5272,5312 5368,5340 "/>
  <path class="fil21" d="M6098 5388l-120 234 -346 99 -282 -133 31 -116 459 0 114 -84 144 0zm-805 112l42 29 17 -55 -59 -11 0 37z"/>
  <path class="fil16" d="M6098 5388l-120 234 -72 21 -279 0 171 -171 42 0 114 -84 144 0zm-512 216l39 8 35 -35 -62 -24 -12 51z"/>
  <polygon class="fil17" points="5742,4646 5790,4709 5790,4896 5738,4948 5807,5018 5807,5192 4974,5192 5121,4829 "/>
  <polygon class="fil13" points="5257,2171 5257,1589 4668,926 4807,926 5180,1378 4969,1020 4992,1013 5226,1355 5352,1321 4991,693 4745,578 4752,549 5201,747 5412,1034 5148,592 5192,567 5529,1134 5436,819 5924,819 5924,1287 6041,1013 6041,482 6074,482 6074,672 6380,978 6322,1194 6584,932 6584,530 6771,717 6587,1256 6611,1269 6731,961 6927,1274 6804,1488 7064,1279 7064,996 7093,996 7093,1437 6931,1594 6857,1594 6831,1692 6508,2005 "/>
  <polygon class="fil8" points="5761,5130 5719,5088 6038,5151 6130,5307 "/>
  <polygon class="fil3" points="4898,2010 4840,1875 4480,1875 4398,2016 4332,1902 4147,2087 4342,2162 4405,2194 4582,2241 "/>
  <path class="fil21" d="M6708 2057l-44 -215 -260 0 108 -102 -207 0 -180 104 41 -84 -236 -63 -26 97 -26 -96 6 -2 -30 8 0 130 854 223zm-839 -186l-83 -146 -529 191 0 98 -11 0 0 162 623 -305z"/>
  <polygon class="fil13" points="5790,4709 5658,4784 5658,4953 5577,4994 5638,4813 5482,4855 5439,4928 5404,4907 5114,5074 5276,5074 5459,4968 5511,5093 5141,5315 4748,5315 4987,4425 5367,4425 "/>
  <polygon class="fil7" points="5047,4684 5439,4684 5439,4733 5063,4950 5063,5061 4853,5061 "/>
  <polygon class="fil22" points="4802,5167 4597,5220 4802,5575 "/>
  <polygon class="fil23" points="3829,3630 3829,4627 4069,5044 4152,5064 4127,5156 4439,5554 4638,5298 4350,4135 "/>
  <polygon class="fil7" points="3829,3630 3829,4034 3829,4443 4426,4443 4350,4135 "/>
  <polygon class="fil15" points="3829,4257 3829,4627 4069,5044 4077,5044 4076,5045 4069,5044 4069,4718 "/>
  <polygon class="fil8" points="4881,3712 4470,4416 3978,4261 3829,3630 4123,3117 4462,3302 "/>
  <polygon class="fil16" points="4772,3857 4489,3678 4199,3846 4369,4172 "/>
  <polygon class="fil7" points="4612,3605 4684,3848 4296,3817 4215,3585 "/>
  <polygon class="fil18" points="6130,5307 5921,5134 5662,5095 5591,5115 5533,5088 5179,5170 5089,5315 5233,5340 6073,5339 "/>
  <path class="fil24" d="M6130 5307l-51 -42 -130 75 124 -1 57 -32zm-969 -107l-72 115 144 25 449 0 -521 -140z"/>
  <polygon class="fil20" points="6087,5272 5921,5134 5662,5095 5591,5115 5533,5088 5309,5140 5550,5140 5640,5192 5965,5192 6044,5272 "/>
  <polygon class="fil8" points="5738,5107 5662,5095 5591,5115 5533,5088 5511,5093 5586,5137 5768,5137 "/>
  <polygon class="fil15" points="4642,3698 4201,4463 4638,5298 4805,5298 4964,5010 5025,5010 5013,4963 5231,4815 5101,4780 5101,4458 5402,4458 5491,3514 5192,3449 "/>
  <polygon class="fil2" points="4562,3838 4267,4348 4891,4558 5014,4099 "/>
  <polygon class="fil8" points="4562,3838 4369,4172 4742,4172 4742,3942 "/>
  <polygon class="fil22" points="5433,3792 5354,3725 5167,4106 5167,4489 5433,4257 "/>
  <polygon class="fil8" points="5275,3885 5167,4106 5167,4174 5316,4037 "/>
  <polygon class="fil8" points="7100,3810 7144,4269 7077,4251 7086,4330 6810,4833 6831,4931 6718,4948 6487,5449 6447,5449 6193,4762 6193,4223 "/>
  <polygon class="fil16" points="6259,4441 5694,4620 5793,4791 5843,4741 6093,4927 6259,4927 "/>
  <polygon class="fil9" points="6006,4393 6118,4570 6259,4929 6350,4525 6058,4283 "/>
  <polygon class="fil15" points="4612,3605 4285,3794 4183,3492 4415,3321 4784,3321 "/>
  <polygon class="fil25" points="5383,3867 5298,4332 5116,4458 5167,4606 5346,4606 5485,4665 5639,4665 5509,3350 5280,3360 "/>
  <polygon class="fil19" points="5130,4498 5167,4606 5346,4606 5485,4665 5639,4665 5622,4498 "/>
  <polygon class="fil16" points="5337,4117 5298,4332 5116,4458 5126,4489 5437,4489 "/>
  <polygon class="fil15" points="5560,3867 5509,3350 5280,3360 5383,3867 "/>
  <polygon class="fil15" points="5464,4498 5464,3271 6058,3271 5674,4584 5464,4475 "/>
  <polygon class="fil9" points="5464,3852 5464,3319 5936,3314 5778,4166 "/>
  <polygon class="fil1" points="6007,4676 5872,4675 5602,4667 5464,4498 5639,4498 5768,4477 6079,4477 6118,4570 "/>
  <polygon class="fil14" points="5724,4671 5602,4667 5464,4498 5624,4498 "/>
  <polygon class="fil11" points="4625,3534 4527,3613 4588,3839 4956,3874 5119,3685 "/>
  <polygon class="fil22" points="5069,3743 5119,3685 5069,3670 4789,3685 4844,3749 "/>
  <polygon class="fil9" points="4572,3577 4527,3613 4579,3808 4642,3698 "/>
  <polygon class="fil23" points="4760,3270 4383,3288 4577,3483 4843,3412 "/>
  <polygon class="fil23" points="5313,3271 5457,3471 5383,3867 5205,3560 "/>
  <polygon class="fil2" points="6679,3254 6844,3395 6746,3666 6544,3579 "/>
  <polygon class="fil2" points="6559,3520 6654,3606 6400,3794 5916,3747 6158,3527 "/>
  <polygon class="fil8" points="6771,3637 6654,3606 6490,3606 6405,3753 6254,3840 6767,3840 "/>
  <polygon class="fil9" points="6062,3770 6353,3791 6235,3876 5871,3883 5788,3645 5940,3540 "/>
  <polygon class="fil15" points="5902,3674 6107,3811 6325,3811 6411,3748 6095,3748 6066,3748 6064,3748 6064,3656 6066,3656 6066,3635 "/>
  <polygon class="fil19" points="6412,3578 6587,3434 6706,3493 6654,3606 6552,3578 "/>
  <polygon class="fil3" points="6291,3405 6631,3486 6690,3262 6373,3262 "/>
  <polygon class="fil19" points="6291,3405 6367,3423 6519,3423 6519,3262 6373,3262 "/>
  <polygon class="fil26" points="6579,3561 6614,3501 6441,3384 6381,3476 "/>
  <polygon class="fil7" points="6296,3390 6444,3396 6397,3476 6234,3476 "/>
  <polygon class="fil9" points="5938,3141 5935,3391 5220,3391 5492,2920 "/>
  <polygon class="fil2" points="5909,3391 5817,3391 5388,3100 5408,3065 5664,3005 5828,3087 "/>
  <polygon class="fil16" points="4602,3168 4450,2202 4261,2131 4036,2477 4036,3204 4280,3344 "/>
  <polygon class="fil23" points="6026,3476 5814,3572 5814,3116 6189,3217 "/>
  <polygon class="fil2" points="5305,2010 4915,1905 4356,2122 4356,3096 4587,3230 4871,3230 4871,3241 5117,3267 5114,3271 5148,3271 5191,3275 5194,3271 5541,3271 5541,3117 5522,3103 5610,2550 "/>
  <polygon class="fil8" points="5305,2010 4915,1905 4862,1926 5257,2834 5567,2817 5610,2550 "/>
  <polygon class="fil16" points="6102,3234 5693,3147 5631,3209 5631,3039 5541,3091 5541,3207 5257,3010 5257,2659 5514,2659 5555,2617 5257,2617 5257,1991 5856,1812 6693,2003 7003,3110 7003,3740 7089,3827 6717,3772 6796,3279 6527,3196 "/>
  <polygon class="fil13" points="4589,3321 4497,3321 4406,3321 4280,3414 4244,3338 4504,3161 5090,3203 5118,3247 5253,3178 5372,3362 5372,3613 5171,3478 4764,3446 4829,3446 4756,3321 "/>
  <polygon class="fil13" points="6555,3304 6593,3304 6694,3304 6779,3385 6796,3279 6546,3124 6165,3197 6102,3234 5901,3186 5858,3288 6125,3481 5933,3572 6015,3572 6309,3389 6371,3394 6343,3387 6426,3304 "/>
  <polygon class="fil16" points="5639,4498 5639,3433 5814,3572 5962,3825 6530,3825 6614,3680 7100,3810 6859,4495 6908,4580 6838,4580 6756,4722 6301,4722 6079,4378 6079,4498 "/>
  <polygon class="fil19" points="4942,3663 4952,3712 5119,3685 5054,3553 "/>
  <polygon class="fil3" points="4942,3663 4952,3712 5045,3697 5045,3617 4988,3617 "/>
  <polygon class="fil19" points="4755,3483 4810,3712 4707,3685 4637,3564 "/>
  <polygon class="fil3" points="4784,3604 4810,3712 4707,3685 4707,3604 "/>
  <polygon class="fil3" points="6321,3704 6504,3575 6504,3542 6375,3480 "/>
  <polygon class="fil16" points="6321,3704 6445,3617 6445,3545 6359,3545 "/>
  <polygon class="fil19" points="6020,3674 6185,3704 6123,3545 6038,3545 "/>
  <polygon class="fil3" points="6064,3682 6185,3704 6144,3599 6064,3599 "/>
  <polygon class="fil12" points="6111,3556 6111,3623 6185,3704 6321,3704 6387,3613 6387,3501 6522,3576 6579,3561 6351,3444 6265,3444 6327,3409 6438,3409 6617,3538 6638,3459 6444,3363 6046,3363 5814,3572 5861,3654 5925,3591 5902,3674 6020,3674 6065,3561 "/>
  <polygon class="fil13" points="6304,3490 6358,3490 6358,3607 6310,3675 6201,3675 6142,3615 6182,3585 6182,3599 6291,3599 6291,3500 "/>
  <rect class="fil16" x="6291" y="3490" width="35.4935" height="35.4935"/>
  <polygon class="fil12" points="4735,3533 4735,3615 4810,3712 4952,3712 5045,3625 5045,3582 5119,3685 5279,3627 5279,3586 5320,3627 5372,3613 5117,3381 4665,3381 4307,3573 4489,3678 "/>
  <polygon class="fil13" points="4938,3495 5018,3495 5018,3612 4944,3680 4834,3680 4775,3621 4815,3590 4815,3604 4925,3604 4925,3505 "/>
  <rect class="fil16" x="4925" y="3495" width="35.4935" height="35.4935"/>
  <path class="fil12" d="M5970 4678l-222 -7 -6 -25 189 -125 109 76 -70 81zm-881 637l103 0 224 -83 411 -8 133 107 170 -24 -21 59 -140 -8 -184 103 -330 0 -263 -115 -69 12 -34 -43zm124 -711l272 61 -155 -129 -139 13 22 55z"/>
  <polygon class="fil23" points="4699,5494 4631,5388 4506,5619 4644,5757 "/>
  <polygon class="fil17" points="5969,5063 5910,5110 5825,5087 5871,5007 "/>
  <polygon class="fil13" points="4955,5427 4956,5350 5052,5350 5052,5453 "/>
  <polygon class="fil15" points="7299,3569 7426,3745 7444,3638 7384,3377 "/>
  <polygon class="fil3" points="3610,1940 3296,2024 3291,1870 3598,1918 3604,1941 "/>
  <polygon class="fil26" points="4096,608 4129,820 3936,663 "/>
  <polygon class="fil27" points="1071,5543 754,5543 754,5090 844,5090 844,5452 1071,5452 "/>
  <polygon id="1" class="fil27" points="1208,5543 1118,5543 1118,5090 1208,5090 "/>
  <path id="2" class="fil27" d="M1735 5318c0,22 -3,42 -8,62 -6,20 -14,39 -24,56 -10,17 -22,33 -36,48 -15,14 -30,26 -48,36 -17,10 -35,18 -55,24 -20,6 -41,8 -63,8 -21,0 -42,-2 -62,-8 -19,-6 -38,-14 -55,-24 -18,-10 -33,-22 -48,-36 -14,-15 -26,-31 -37,-48 -10,-17 -18,-36 -23,-56 -6,-20 -9,-40 -9,-62 0,-21 3,-42 9,-62 5,-20 13,-39 23,-56 11,-17 23,-33 37,-47 15,-14 30,-26 48,-37 17,-10 36,-18 55,-23 20,-6 41,-8 62,-8 22,0 43,2 63,8 20,5 38,13 55,23 18,11 33,23 48,37 14,14 26,30 36,47 10,17 18,36 24,56 5,20 8,41 8,62zm-90 0c0,-20 -3,-38 -11,-56 -8,-17 -18,-33 -31,-45 -13,-13 -28,-24 -46,-31 -17,-8 -36,-12 -56,-12 -20,0 -38,4 -56,12 -17,7 -32,18 -45,31 -13,12 -24,28 -31,45 -8,18 -12,36 -12,56 0,20 4,39 12,56 7,17 18,32 31,45 13,14 28,24 45,31 18,8 36,12 56,12 20,0 39,-4 56,-12 18,-7 33,-17 46,-31 13,-13 23,-28 31,-45 8,-17 11,-36 11,-56z"/>
  <polygon id="3" class="fil27" points="2156,5543 2059,5543 1885,5245 1885,5543 1795,5543 1795,5090 1891,5090 2066,5388 2066,5090 2156,5090 "/>
  <polygon id="4" class="fil27" points="2550,5543 2240,5543 2240,5090 2550,5090 2550,5181 2331,5181 2331,5271 2479,5271 2479,5362 2331,5362 2331,5452 2550,5452 "/>
  <polygon id="5" class="fil27" points="2930,5543 2614,5543 2614,5090 2704,5090 2704,5452 2930,5452 "/>
  <path class="fil28" d="M960 5858l-41 0 0 -150c0,-3 -1,-6 -2,-8 -1,-3 -3,-5 -5,-7 -2,-2 -4,-3 -6,-4 -3,-1 -6,-2 -9,-2 -2,0 -5,1 -8,2 -2,1 -4,2 -6,4 -2,2 -4,4 -5,7 -1,2 -1,5 -1,8l0 150 -42 0 0 -150c0,-3 -1,-6 -2,-8 -1,-3 -3,-5 -4,-7 -2,-2 -5,-3 -7,-4 -3,-1 -5,-2 -8,-2 -3,0 -6,1 -9,2 -2,1 -4,2 -6,4 -2,2 -4,4 -5,7 -1,2 -1,5 -1,8l0 150 -42 0 0 -150c0,-9 1,-17 5,-24 3,-8 7,-15 13,-21 6,-5 12,-10 20,-13 8,-3 16,-5 25,-5 7,0 15,2 22,4 7,3 14,7 20,12 5,-5 12,-9 19,-12 7,-2 15,-4 22,-4 9,0 17,2 25,5 8,3 14,8 20,13 6,6 10,13 13,21 4,7 5,15 5,24l0 150z"/>
  <polygon id="1" class="fil28" points="1477,5858 1333,5858 1333,5648 1477,5648 1477,5690 1375,5690 1375,5732 1444,5732 1444,5774 1375,5774 1375,5816 1477,5816 "/>
  <path id="2" class="fil28" d="M1830 5711c0,-9 1,-17 5,-24 3,-8 7,-15 13,-20 6,-6 12,-11 20,-14 8,-3 16,-5 24,-5l97 0 0 42 -97 0c-2,0 -5,1 -8,2 -2,1 -4,2 -6,4 -2,2 -4,4 -5,7 -1,2 -1,5 -1,8 0,3 0,6 1,8 1,3 3,5 5,7 2,2 4,3 6,4 3,2 6,2 8,2l42 0c9,0 17,2 25,5 8,3 14,8 20,13 6,6 10,13 14,20 3,8 4,16 4,25 0,9 -1,17 -4,24 -4,8 -8,15 -14,20 -6,6 -12,11 -20,14 -8,3 -16,5 -25,5l-93 0 0 -42 93 0c3,0 6,-1 9,-2 2,-1 4,-2 6,-4 2,-2 4,-4 5,-7 1,-2 1,-5 1,-8 0,-3 0,-6 -1,-8 -1,-3 -3,-5 -5,-7 -2,-2 -4,-3 -6,-4 -3,-1 -6,-2 -9,-2l-42 0c-8,0 -16,-2 -24,-5 -8,-3 -14,-8 -20,-13 -6,-6 -10,-13 -13,-21 -4,-7 -5,-15 -5,-24z"/>
  <path id="3" class="fil28" d="M2348 5711c0,-9 2,-17 5,-24 3,-8 8,-15 14,-20 5,-6 12,-11 19,-14 8,-3 16,-5 25,-5l96 0 0 42 -96 0c-3,0 -6,1 -8,2 -3,1 -5,2 -7,4 -2,2 -3,4 -4,7 -1,2 -2,5 -2,8 0,3 1,6 2,8 1,3 2,5 4,7 2,2 4,3 7,4 2,2 5,2 8,2l42 0c9,0 17,2 24,5 8,3 15,8 20,13 6,6 11,13 14,20 3,8 5,16 5,25 0,9 -2,17 -5,24 -3,8 -8,15 -14,20 -5,6 -12,11 -20,14 -7,3 -15,5 -24,5l-93 0 0 -42 93 0c3,0 6,-1 8,-2 3,-1 5,-2 7,-4 2,-2 3,-4 4,-7 1,-2 2,-5 2,-8 0,-3 -1,-6 -2,-8 -1,-3 -2,-5 -4,-7 -2,-2 -4,-3 -7,-4 -2,-1 -5,-2 -8,-2l-42 0c-9,0 -17,-2 -25,-5 -7,-3 -14,-8 -19,-13 -6,-6 -11,-13 -14,-21 -3,-7 -5,-15 -5,-24z"/>
  <polygon id="4" class="fil28" points="2921,5858 2879,5858 2879,5648 2921,5648 "/>
  <polygon class="fil8" points="2412,3254 2345,3036 2650,3036 "/>
  <polygon class="fil1" points="7890,2430 7568,2675 7906,2658 "/>
 </g>
</svg>
